# xmcd CD database file
#
# Track frame offsets:
#	150
#	13451
#	27524
#	43278
#	57660
#	71017
#	86195
#	99746
#	110891
#	125062
#	138922
#	151017
#	164431
#	180067
#	194547
#	209306
#	223834
#	238164
#	251278
#	265359
#	278233
#	290607
#
# Disc length: 4043 seconds
#
# Revision: 0
# Processed by: cddbd v1.4PL0 Copyright (c) Steve Scherf et al.
# Submitted via: CDex 1.50beta10
#
DISCID=610fc916
DTITLE=Jazz in Paris - Harlem Piano in Monmartre
DYEAR=2002
DGENRE=Jazz
TTITLE0=Garland Vilson - Blues en si bemol
TTITLE1=Garland Vilson - Get up, Bessie
TTITLE2=Garland Vilson - Mood indigo
TTITLE3=Garland Vilson - China Boy
TTITLE4=Garland Vilson - Minnie the Moocher's wedding day
TTITLE5=Garland Vilson - Rhapsody in love
TTITLE6=Hermann Chittison - Honeysuckle Rose
TTITLE7=Hermann Chittison - Bugle call rag
TTITLE8=Hermann Chittison - You'll be my lover
TTITLE9=Hermann Chittison - Stormy weather
TTITLE10=Hermann Chittison - Heat wave
TTITLE11=Hermann Chittison - Miss Otis regrets
TTITLE12=Hermann Chittison - Saint Louis blues
TTITLE13=Hermann Chittison - Red Jill rag
TTITLE14=Hermann Chittison - Nagasaki
TTITLE15=Hermann Chittison - Trees
TTITLE16=Danny Polo trio - You made me love you
TTITLE17=Danny Polo trio - Monmartre loan
TTITLE18=Charlie Lewis - Coquette
TTITLE19=Charlie Lewis - Long ago and far away
TTITLE20=Charlie Lewis - Some of these days
TTITLE21=Charlie Lewis - April in Paris
EXTD=YEAR: 2002
EXTT0=
EXTT1=
EXTT2=
EXTT3=
EXTT4=
EXTT5=
EXTT6=
EXTT7=
EXTT8=
EXTT9=
EXTT10=
EXTT11=
EXTT12=
EXTT13=
EXTT14=
EXTT15=
EXTT16=
EXTT17=
EXTT18=
EXTT19=
EXTT20=
EXTT21=
PLAYORDER=
